<mxfile host="app.diagrams.net" modified="2023-10-17T07:05:00.571Z" agent="Mozilla/5.0 (Windows NT 10.0; Win64; x64; rv:109.0) Gecko/20100101 Firefox/118.0" etag="vzRHROj7hjXwzOJM4nTp" version="22.0.4" type="device">
  <diagram name="Page-1" id="C1PMmNdJdfuv4z8-YBYq">
    <mxGraphModel dx="989" dy="539" grid="1" gridSize="10" guides="1" tooltips="1" connect="1" arrows="1" fold="1" page="1" pageScale="1" pageWidth="850" pageHeight="1100" math="0" shadow="0">
      <root>
        <mxCell id="0" />
        <mxCell id="1" parent="0" />
        <mxCell id="7qXslM0cFS4lXqfqdxFk-1" value="Sākums/Beigas" style="ellipse;whiteSpace=wrap;html=1;aspect=fixed;" vertex="1" parent="1">
          <mxGeometry x="95" width="90" height="90" as="geometry" />
        </mxCell>
        <mxCell id="7qXslM0cFS4lXqfqdxFk-3" style="edgeStyle=orthogonalEdgeStyle;rounded=0;orthogonalLoop=1;jettySize=auto;html=1;exitX=0;exitY=0.5;exitDx=0;exitDy=0;" edge="1" parent="1" source="7qXslM0cFS4lXqfqdxFk-2">
          <mxGeometry relative="1" as="geometry">
            <mxPoint x="10" y="180" as="targetPoint" />
          </mxGeometry>
        </mxCell>
        <mxCell id="7qXslM0cFS4lXqfqdxFk-5" style="edgeStyle=orthogonalEdgeStyle;rounded=0;orthogonalLoop=1;jettySize=auto;html=1;exitX=1;exitY=0.5;exitDx=0;exitDy=0;" edge="1" parent="1" source="7qXslM0cFS4lXqfqdxFk-2">
          <mxGeometry relative="1" as="geometry">
            <mxPoint x="280" y="180" as="targetPoint" />
          </mxGeometry>
        </mxCell>
        <mxCell id="7qXslM0cFS4lXqfqdxFk-2" value="&lt;div&gt;if / else&lt;/div&gt;&lt;div&gt;(pārbaude - jā/nē)&lt;br&gt;&lt;/div&gt;" style="rhombus;whiteSpace=wrap;html=1;" vertex="1" parent="1">
          <mxGeometry x="80" y="120" width="120" height="120" as="geometry" />
        </mxCell>
        <mxCell id="7qXslM0cFS4lXqfqdxFk-4" value="Jā" style="text;html=1;align=center;verticalAlign=middle;resizable=0;points=[];autosize=1;strokeColor=none;fillColor=none;" vertex="1" parent="1">
          <mxGeometry x="30" y="150" width="40" height="30" as="geometry" />
        </mxCell>
        <mxCell id="7qXslM0cFS4lXqfqdxFk-6" value="Nē" style="text;html=1;align=center;verticalAlign=middle;resizable=0;points=[];autosize=1;strokeColor=none;fillColor=none;" vertex="1" parent="1">
          <mxGeometry x="220" y="150" width="40" height="30" as="geometry" />
        </mxCell>
        <mxCell id="7qXslM0cFS4lXqfqdxFk-7" value="Darbība" style="rounded=0;whiteSpace=wrap;html=1;" vertex="1" parent="1">
          <mxGeometry x="80" y="260" width="120" height="60" as="geometry" />
        </mxCell>
        <mxCell id="7qXslM0cFS4lXqfqdxFk-8" value="&lt;div&gt;Ievade/Izvade&lt;/div&gt;&lt;div&gt;(input/print)&lt;br&gt;&lt;/div&gt;" style="shape=parallelogram;perimeter=parallelogramPerimeter;whiteSpace=wrap;html=1;fixedSize=1;" vertex="1" parent="1">
          <mxGeometry x="70" y="340" width="140" height="70" as="geometry" />
        </mxCell>
        <mxCell id="7qXslM0cFS4lXqfqdxFk-15" style="edgeStyle=orthogonalEdgeStyle;rounded=0;orthogonalLoop=1;jettySize=auto;html=1;exitX=0.5;exitY=1;exitDx=0;exitDy=0;entryX=0.5;entryY=0;entryDx=0;entryDy=0;" edge="1" parent="1" source="7qXslM0cFS4lXqfqdxFk-9" target="7qXslM0cFS4lXqfqdxFk-11">
          <mxGeometry relative="1" as="geometry" />
        </mxCell>
        <mxCell id="7qXslM0cFS4lXqfqdxFk-9" value="Sākums/Beigas" style="ellipse;whiteSpace=wrap;html=1;aspect=fixed;" vertex="1" parent="1">
          <mxGeometry x="510" y="10" width="90" height="90" as="geometry" />
        </mxCell>
        <mxCell id="7qXslM0cFS4lXqfqdxFk-16" style="edgeStyle=orthogonalEdgeStyle;rounded=0;orthogonalLoop=1;jettySize=auto;html=1;exitX=0;exitY=0.5;exitDx=0;exitDy=0;" edge="1" parent="1" source="7qXslM0cFS4lXqfqdxFk-11" target="7qXslM0cFS4lXqfqdxFk-13">
          <mxGeometry relative="1" as="geometry" />
        </mxCell>
        <mxCell id="7qXslM0cFS4lXqfqdxFk-18" style="edgeStyle=orthogonalEdgeStyle;rounded=0;orthogonalLoop=1;jettySize=auto;html=1;exitX=1;exitY=0.5;exitDx=0;exitDy=0;entryX=0.5;entryY=0;entryDx=0;entryDy=0;" edge="1" parent="1" source="7qXslM0cFS4lXqfqdxFk-11" target="7qXslM0cFS4lXqfqdxFk-12">
          <mxGeometry relative="1" as="geometry" />
        </mxCell>
        <mxCell id="7qXslM0cFS4lXqfqdxFk-11" value="Vai ir pieejami ratiņi?" style="rhombus;whiteSpace=wrap;html=1;" vertex="1" parent="1">
          <mxGeometry x="485" y="140" width="140" height="150" as="geometry" />
        </mxCell>
        <mxCell id="7qXslM0cFS4lXqfqdxFk-22" style="edgeStyle=orthogonalEdgeStyle;rounded=0;orthogonalLoop=1;jettySize=auto;html=1;exitX=0.5;exitY=1;exitDx=0;exitDy=0;" edge="1" parent="1" source="7qXslM0cFS4lXqfqdxFk-12">
          <mxGeometry relative="1" as="geometry">
            <mxPoint x="725.2857142857142" y="430" as="targetPoint" />
          </mxGeometry>
        </mxCell>
        <mxCell id="7qXslM0cFS4lXqfqdxFk-24" style="edgeStyle=orthogonalEdgeStyle;rounded=0;orthogonalLoop=1;jettySize=auto;html=1;exitX=0;exitY=0.5;exitDx=0;exitDy=0;" edge="1" parent="1" source="7qXslM0cFS4lXqfqdxFk-12">
          <mxGeometry relative="1" as="geometry">
            <mxPoint x="650" y="440" as="targetPoint" />
          </mxGeometry>
        </mxCell>
        <mxCell id="7qXslM0cFS4lXqfqdxFk-12" value="Vai ir pieejami groziņi?" style="rhombus;whiteSpace=wrap;html=1;" vertex="1" parent="1">
          <mxGeometry x="670" y="290" width="110" height="110" as="geometry" />
        </mxCell>
        <mxCell id="7qXslM0cFS4lXqfqdxFk-20" style="edgeStyle=orthogonalEdgeStyle;rounded=0;orthogonalLoop=1;jettySize=auto;html=1;exitX=0.5;exitY=1;exitDx=0;exitDy=0;" edge="1" parent="1" source="7qXslM0cFS4lXqfqdxFk-13">
          <mxGeometry relative="1" as="geometry">
            <mxPoint x="400.1428571428571" y="410" as="targetPoint" />
          </mxGeometry>
        </mxCell>
        <mxCell id="7qXslM0cFS4lXqfqdxFk-13" value="Paņem ratiņus" style="rounded=0;whiteSpace=wrap;html=1;" vertex="1" parent="1">
          <mxGeometry x="340" y="330" width="120" height="60" as="geometry" />
        </mxCell>
        <mxCell id="7qXslM0cFS4lXqfqdxFk-17" value="Jā" style="text;html=1;align=center;verticalAlign=middle;resizable=0;points=[];autosize=1;strokeColor=none;fillColor=none;" vertex="1" parent="1">
          <mxGeometry x="400" y="188" width="40" height="30" as="geometry" />
        </mxCell>
        <mxCell id="7qXslM0cFS4lXqfqdxFk-19" value="Nē" style="text;html=1;align=center;verticalAlign=middle;resizable=0;points=[];autosize=1;strokeColor=none;fillColor=none;" vertex="1" parent="1">
          <mxGeometry x="650" y="188" width="40" height="30" as="geometry" />
        </mxCell>
        <mxCell id="7qXslM0cFS4lXqfqdxFk-21" value="..." style="text;html=1;align=center;verticalAlign=middle;resizable=0;points=[];autosize=1;strokeColor=none;fillColor=none;" vertex="1" parent="1">
          <mxGeometry x="385" y="400" width="30" height="30" as="geometry" />
        </mxCell>
        <mxCell id="7qXslM0cFS4lXqfqdxFk-23" value="..." style="text;html=1;align=center;verticalAlign=middle;resizable=0;points=[];autosize=1;strokeColor=none;fillColor=none;" vertex="1" parent="1">
          <mxGeometry x="710" y="430" width="30" height="30" as="geometry" />
        </mxCell>
        <mxCell id="7qXslM0cFS4lXqfqdxFk-25" value="..." style="text;html=1;align=center;verticalAlign=middle;resizable=0;points=[];autosize=1;strokeColor=none;fillColor=none;" vertex="1" parent="1">
          <mxGeometry x="640" y="430" width="30" height="30" as="geometry" />
        </mxCell>
        <mxCell id="7qXslM0cFS4lXqfqdxFk-28" value="Jā" style="text;html=1;align=center;verticalAlign=middle;resizable=0;points=[];autosize=1;strokeColor=none;fillColor=none;" vertex="1" parent="1">
          <mxGeometry x="640" y="320" width="40" height="30" as="geometry" />
        </mxCell>
        <mxCell id="7qXslM0cFS4lXqfqdxFk-29" value="Nē" style="text;html=1;align=center;verticalAlign=middle;resizable=0;points=[];autosize=1;strokeColor=none;fillColor=none;" vertex="1" parent="1">
          <mxGeometry x="690" y="390" width="40" height="30" as="geometry" />
        </mxCell>
        <mxCell id="7qXslM0cFS4lXqfqdxFk-35" style="edgeStyle=orthogonalEdgeStyle;rounded=0;orthogonalLoop=1;jettySize=auto;html=1;exitX=0.5;exitY=1;exitDx=0;exitDy=0;" edge="1" parent="1" source="7qXslM0cFS4lXqfqdxFk-34">
          <mxGeometry relative="1" as="geometry">
            <mxPoint x="279.7931034482758" y="640" as="targetPoint" />
          </mxGeometry>
        </mxCell>
        <mxCell id="7qXslM0cFS4lXqfqdxFk-34" value="Sākums" style="ellipse;whiteSpace=wrap;html=1;aspect=fixed;" vertex="1" parent="1">
          <mxGeometry x="240" y="520" width="80" height="80" as="geometry" />
        </mxCell>
        <mxCell id="7qXslM0cFS4lXqfqdxFk-36" value="&lt;div&gt;ievadam skaitli x&lt;br&gt;&lt;/div&gt;" style="shape=parallelogram;perimeter=parallelogramPerimeter;whiteSpace=wrap;html=1;fixedSize=1;" vertex="1" parent="1">
          <mxGeometry x="220" y="640" width="120" height="60" as="geometry" />
        </mxCell>
        <mxCell id="7qXslM0cFS4lXqfqdxFk-43" style="edgeStyle=orthogonalEdgeStyle;rounded=0;orthogonalLoop=1;jettySize=auto;html=1;exitX=0.5;exitY=1;exitDx=0;exitDy=0;entryX=0.5;entryY=0;entryDx=0;entryDy=0;" edge="1" parent="1" source="7qXslM0cFS4lXqfqdxFk-39" target="7qXslM0cFS4lXqfqdxFk-40">
          <mxGeometry relative="1" as="geometry" />
        </mxCell>
        <mxCell id="7qXslM0cFS4lXqfqdxFk-39" value="&lt;div&gt;ievadam skaitli y&lt;br&gt;&lt;/div&gt;" style="shape=parallelogram;perimeter=parallelogramPerimeter;whiteSpace=wrap;html=1;fixedSize=1;" vertex="1" parent="1">
          <mxGeometry x="210" y="720" width="120" height="60" as="geometry" />
        </mxCell>
        <mxCell id="7qXslM0cFS4lXqfqdxFk-44" style="edgeStyle=orthogonalEdgeStyle;rounded=0;orthogonalLoop=1;jettySize=auto;html=1;exitX=0.5;exitY=1;exitDx=0;exitDy=0;entryX=0.5;entryY=0;entryDx=0;entryDy=0;" edge="1" parent="1" source="7qXslM0cFS4lXqfqdxFk-40" target="7qXslM0cFS4lXqfqdxFk-41">
          <mxGeometry relative="1" as="geometry" />
        </mxCell>
        <mxCell id="7qXslM0cFS4lXqfqdxFk-40" value="&lt;div&gt;ievadam darbību&lt;br&gt;&lt;/div&gt;" style="shape=parallelogram;perimeter=parallelogramPerimeter;whiteSpace=wrap;html=1;fixedSize=1;" vertex="1" parent="1">
          <mxGeometry x="210" y="800" width="120" height="60" as="geometry" />
        </mxCell>
        <mxCell id="7qXslM0cFS4lXqfqdxFk-47" style="edgeStyle=orthogonalEdgeStyle;rounded=0;orthogonalLoop=1;jettySize=auto;html=1;exitX=0;exitY=0.5;exitDx=0;exitDy=0;entryX=0.5;entryY=0;entryDx=0;entryDy=0;" edge="1" parent="1" source="7qXslM0cFS4lXqfqdxFk-41" target="7qXslM0cFS4lXqfqdxFk-46">
          <mxGeometry relative="1" as="geometry" />
        </mxCell>
        <mxCell id="7qXslM0cFS4lXqfqdxFk-55" style="edgeStyle=orthogonalEdgeStyle;rounded=0;orthogonalLoop=1;jettySize=auto;html=1;exitX=0.5;exitY=1;exitDx=0;exitDy=0;entryX=0.5;entryY=0;entryDx=0;entryDy=0;" edge="1" parent="1" source="7qXslM0cFS4lXqfqdxFk-41" target="7qXslM0cFS4lXqfqdxFk-49">
          <mxGeometry relative="1" as="geometry" />
        </mxCell>
        <mxCell id="7qXslM0cFS4lXqfqdxFk-58" style="edgeStyle=orthogonalEdgeStyle;rounded=0;orthogonalLoop=1;jettySize=auto;html=1;exitX=1;exitY=0.5;exitDx=0;exitDy=0;entryX=0.5;entryY=0;entryDx=0;entryDy=0;" edge="1" parent="1" source="7qXslM0cFS4lXqfqdxFk-41" target="7qXslM0cFS4lXqfqdxFk-57">
          <mxGeometry relative="1" as="geometry" />
        </mxCell>
        <mxCell id="7qXslM0cFS4lXqfqdxFk-41" value="darbība" style="rhombus;whiteSpace=wrap;html=1;" vertex="1" parent="1">
          <mxGeometry x="230" y="880" width="80" height="80" as="geometry" />
        </mxCell>
        <mxCell id="7qXslM0cFS4lXqfqdxFk-42" style="edgeStyle=orthogonalEdgeStyle;rounded=0;orthogonalLoop=1;jettySize=auto;html=1;exitX=0.5;exitY=1;exitDx=0;exitDy=0;entryX=0.582;entryY=-0.018;entryDx=0;entryDy=0;entryPerimeter=0;" edge="1" parent="1" source="7qXslM0cFS4lXqfqdxFk-36" target="7qXslM0cFS4lXqfqdxFk-39">
          <mxGeometry relative="1" as="geometry" />
        </mxCell>
        <mxCell id="7qXslM0cFS4lXqfqdxFk-61" style="edgeStyle=orthogonalEdgeStyle;rounded=0;orthogonalLoop=1;jettySize=auto;html=1;exitX=0.5;exitY=1;exitDx=0;exitDy=0;entryX=0;entryY=0.5;entryDx=0;entryDy=0;" edge="1" parent="1" source="7qXslM0cFS4lXqfqdxFk-46" target="7qXslM0cFS4lXqfqdxFk-60">
          <mxGeometry relative="1" as="geometry">
            <Array as="points">
              <mxPoint x="110" y="1140" />
            </Array>
          </mxGeometry>
        </mxCell>
        <mxCell id="7qXslM0cFS4lXqfqdxFk-46" value="z = x + y" style="rounded=0;whiteSpace=wrap;html=1;" vertex="1" parent="1">
          <mxGeometry x="50" y="950" width="120" height="60" as="geometry" />
        </mxCell>
        <mxCell id="7qXslM0cFS4lXqfqdxFk-48" value="+" style="text;html=1;align=center;verticalAlign=middle;resizable=0;points=[];autosize=1;strokeColor=none;fillColor=none;" vertex="1" parent="1">
          <mxGeometry x="170" y="898" width="30" height="30" as="geometry" />
        </mxCell>
        <mxCell id="7qXslM0cFS4lXqfqdxFk-62" style="edgeStyle=orthogonalEdgeStyle;rounded=0;orthogonalLoop=1;jettySize=auto;html=1;exitX=0.5;exitY=1;exitDx=0;exitDy=0;entryX=0.5;entryY=0;entryDx=0;entryDy=0;" edge="1" parent="1" source="7qXslM0cFS4lXqfqdxFk-49" target="7qXslM0cFS4lXqfqdxFk-60">
          <mxGeometry relative="1" as="geometry" />
        </mxCell>
        <mxCell id="7qXslM0cFS4lXqfqdxFk-49" value="z = x - y" style="rounded=0;whiteSpace=wrap;html=1;" vertex="1" parent="1">
          <mxGeometry x="210" y="990" width="120" height="60" as="geometry" />
        </mxCell>
        <mxCell id="7qXslM0cFS4lXqfqdxFk-53" style="edgeStyle=orthogonalEdgeStyle;rounded=0;orthogonalLoop=1;jettySize=auto;html=1;exitX=1;exitY=0.5;exitDx=0;exitDy=0;entryX=0.5;entryY=0;entryDx=0;entryDy=0;" edge="1" parent="1" source="7qXslM0cFS4lXqfqdxFk-50" target="7qXslM0cFS4lXqfqdxFk-51">
          <mxGeometry relative="1" as="geometry" />
        </mxCell>
        <mxCell id="7qXslM0cFS4lXqfqdxFk-50" value="darbība = +?" style="rhombus;whiteSpace=wrap;html=1;" vertex="1" parent="1">
          <mxGeometry x="579.76" y="920" width="80" height="80" as="geometry" />
        </mxCell>
        <mxCell id="7qXslM0cFS4lXqfqdxFk-54" style="edgeStyle=orthogonalEdgeStyle;rounded=0;orthogonalLoop=1;jettySize=auto;html=1;exitX=1;exitY=0.5;exitDx=0;exitDy=0;entryX=0.5;entryY=0;entryDx=0;entryDy=0;" edge="1" parent="1" source="7qXslM0cFS4lXqfqdxFk-51" target="7qXslM0cFS4lXqfqdxFk-52">
          <mxGeometry relative="1" as="geometry" />
        </mxCell>
        <mxCell id="7qXslM0cFS4lXqfqdxFk-51" value="darbība = -?" style="rhombus;whiteSpace=wrap;html=1;" vertex="1" parent="1">
          <mxGeometry x="654.76" y="990" width="80" height="80" as="geometry" />
        </mxCell>
        <mxCell id="7qXslM0cFS4lXqfqdxFk-69" style="edgeStyle=orthogonalEdgeStyle;rounded=0;orthogonalLoop=1;jettySize=auto;html=1;exitX=1;exitY=0.5;exitDx=0;exitDy=0;" edge="1" parent="1" source="7qXslM0cFS4lXqfqdxFk-52">
          <mxGeometry relative="1" as="geometry">
            <mxPoint x="839.76" y="1170" as="targetPoint" />
          </mxGeometry>
        </mxCell>
        <mxCell id="7qXslM0cFS4lXqfqdxFk-52" value="darbība = *?" style="rhombus;whiteSpace=wrap;html=1;" vertex="1" parent="1">
          <mxGeometry x="739.76" y="1060" width="80" height="80" as="geometry" />
        </mxCell>
        <mxCell id="7qXslM0cFS4lXqfqdxFk-56" value="-" style="text;html=1;align=center;verticalAlign=middle;resizable=0;points=[];autosize=1;strokeColor=none;fillColor=none;" vertex="1" parent="1">
          <mxGeometry x="265" y="958" width="30" height="30" as="geometry" />
        </mxCell>
        <mxCell id="7qXslM0cFS4lXqfqdxFk-63" style="edgeStyle=orthogonalEdgeStyle;rounded=0;orthogonalLoop=1;jettySize=auto;html=1;exitX=0.5;exitY=1;exitDx=0;exitDy=0;entryX=1;entryY=0.5;entryDx=0;entryDy=0;" edge="1" parent="1" source="7qXslM0cFS4lXqfqdxFk-57" target="7qXslM0cFS4lXqfqdxFk-60">
          <mxGeometry relative="1" as="geometry">
            <Array as="points">
              <mxPoint x="460" y="1140" />
            </Array>
          </mxGeometry>
        </mxCell>
        <mxCell id="7qXslM0cFS4lXqfqdxFk-57" value="z = x * y" style="rounded=0;whiteSpace=wrap;html=1;" vertex="1" parent="1">
          <mxGeometry x="400" y="1000" width="120" height="60" as="geometry" />
        </mxCell>
        <mxCell id="7qXslM0cFS4lXqfqdxFk-59" value="*" style="text;html=1;align=center;verticalAlign=middle;resizable=0;points=[];autosize=1;strokeColor=none;fillColor=none;" vertex="1" parent="1">
          <mxGeometry x="370" y="898" width="30" height="30" as="geometry" />
        </mxCell>
        <mxCell id="7qXslM0cFS4lXqfqdxFk-65" style="edgeStyle=orthogonalEdgeStyle;rounded=0;orthogonalLoop=1;jettySize=auto;html=1;exitX=0.5;exitY=1;exitDx=0;exitDy=0;entryX=0.5;entryY=0;entryDx=0;entryDy=0;" edge="1" parent="1" source="7qXslM0cFS4lXqfqdxFk-60" target="7qXslM0cFS4lXqfqdxFk-64">
          <mxGeometry relative="1" as="geometry" />
        </mxCell>
        <mxCell id="7qXslM0cFS4lXqfqdxFk-60" value="z" style="shape=parallelogram;perimeter=parallelogramPerimeter;whiteSpace=wrap;html=1;fixedSize=1;" vertex="1" parent="1">
          <mxGeometry x="210" y="1110" width="120" height="60" as="geometry" />
        </mxCell>
        <mxCell id="7qXslM0cFS4lXqfqdxFk-64" value="Beigas" style="ellipse;whiteSpace=wrap;html=1;aspect=fixed;" vertex="1" parent="1">
          <mxGeometry x="230" y="1230" width="60" height="60" as="geometry" />
        </mxCell>
        <mxCell id="7qXslM0cFS4lXqfqdxFk-66" value="Alternatīva:" style="text;html=1;align=center;verticalAlign=middle;resizable=0;points=[];autosize=1;strokeColor=none;fillColor=none;" vertex="1" parent="1">
          <mxGeometry x="614.76" y="850" width="80" height="30" as="geometry" />
        </mxCell>
        <mxCell id="7qXslM0cFS4lXqfqdxFk-67" value="Nē" style="text;html=1;align=center;verticalAlign=middle;resizable=0;points=[];autosize=1;strokeColor=none;fillColor=none;" vertex="1" parent="1">
          <mxGeometry x="659.76" y="938" width="40" height="30" as="geometry" />
        </mxCell>
        <mxCell id="7qXslM0cFS4lXqfqdxFk-68" value="Nē" style="text;html=1;align=center;verticalAlign=middle;resizable=0;points=[];autosize=1;strokeColor=none;fillColor=none;" vertex="1" parent="1">
          <mxGeometry x="734.76" y="1000" width="40" height="30" as="geometry" />
        </mxCell>
        <mxCell id="7qXslM0cFS4lXqfqdxFk-70" value="Kalkulators (+, -, *)" style="text;html=1;align=center;verticalAlign=middle;resizable=0;points=[];autosize=1;strokeColor=none;fillColor=none;" vertex="1" parent="1">
          <mxGeometry x="220" y="480" width="120" height="30" as="geometry" />
        </mxCell>
        <mxCell id="7qXslM0cFS4lXqfqdxFk-71" value="TODO: Dalīšana utt....." style="text;html=1;align=center;verticalAlign=middle;resizable=0;points=[];autosize=1;strokeColor=none;fillColor=none;" vertex="1" parent="1">
          <mxGeometry x="390" y="880" width="140" height="30" as="geometry" />
        </mxCell>
        <mxCell id="7qXslM0cFS4lXqfqdxFk-73" style="edgeStyle=orthogonalEdgeStyle;rounded=0;orthogonalLoop=1;jettySize=auto;html=1;exitX=0.5;exitY=1;exitDx=0;exitDy=0;" edge="1" parent="1" source="7qXslM0cFS4lXqfqdxFk-72">
          <mxGeometry relative="1" as="geometry">
            <mxPoint x="214.79310344827582" y="1650" as="targetPoint" />
          </mxGeometry>
        </mxCell>
        <mxCell id="7qXslM0cFS4lXqfqdxFk-82" style="edgeStyle=orthogonalEdgeStyle;rounded=0;orthogonalLoop=1;jettySize=auto;html=1;exitX=1;exitY=0.5;exitDx=0;exitDy=0;" edge="1" parent="1" source="7qXslM0cFS4lXqfqdxFk-72">
          <mxGeometry relative="1" as="geometry">
            <mxPoint x="334.9999999999998" y="1580.310344827586" as="targetPoint" />
          </mxGeometry>
        </mxCell>
        <mxCell id="7qXslM0cFS4lXqfqdxFk-72" value="x &amp;lt; 10" style="rhombus;whiteSpace=wrap;html=1;" vertex="1" parent="1">
          <mxGeometry x="175" y="1540" width="80" height="80" as="geometry" />
        </mxCell>
        <mxCell id="7qXslM0cFS4lXqfqdxFk-78" style="edgeStyle=orthogonalEdgeStyle;rounded=0;orthogonalLoop=1;jettySize=auto;html=1;exitX=0.5;exitY=1;exitDx=0;exitDy=0;entryX=0.5;entryY=0;entryDx=0;entryDy=0;" edge="1" parent="1" source="7qXslM0cFS4lXqfqdxFk-74" target="7qXslM0cFS4lXqfqdxFk-72">
          <mxGeometry relative="1" as="geometry" />
        </mxCell>
        <mxCell id="7qXslM0cFS4lXqfqdxFk-74" value="x = 0" style="rounded=0;whiteSpace=wrap;html=1;" vertex="1" parent="1">
          <mxGeometry x="175" y="1490" width="80" height="30" as="geometry" />
        </mxCell>
        <mxCell id="7qXslM0cFS4lXqfqdxFk-80" style="edgeStyle=orthogonalEdgeStyle;rounded=0;orthogonalLoop=1;jettySize=auto;html=1;exitX=0.5;exitY=1;exitDx=0;exitDy=0;entryX=0.5;entryY=0;entryDx=0;entryDy=0;" edge="1" parent="1" source="7qXslM0cFS4lXqfqdxFk-77" target="7qXslM0cFS4lXqfqdxFk-79">
          <mxGeometry relative="1" as="geometry" />
        </mxCell>
        <mxCell id="7qXslM0cFS4lXqfqdxFk-77" value="...." style="rounded=0;whiteSpace=wrap;html=1;" vertex="1" parent="1">
          <mxGeometry x="175" y="1650" width="80" height="30" as="geometry" />
        </mxCell>
        <mxCell id="7qXslM0cFS4lXqfqdxFk-81" style="edgeStyle=orthogonalEdgeStyle;rounded=0;orthogonalLoop=1;jettySize=auto;html=1;exitX=0;exitY=0.5;exitDx=0;exitDy=0;" edge="1" parent="1" source="7qXslM0cFS4lXqfqdxFk-79">
          <mxGeometry relative="1" as="geometry">
            <mxPoint x="214.99999999999977" y="1529.9999999999998" as="targetPoint" />
            <Array as="points">
              <mxPoint x="155" y="1725" />
              <mxPoint x="155" y="1530" />
            </Array>
          </mxGeometry>
        </mxCell>
        <mxCell id="7qXslM0cFS4lXqfqdxFk-79" value="x += 1" style="rounded=0;whiteSpace=wrap;html=1;" vertex="1" parent="1">
          <mxGeometry x="175" y="1710" width="80" height="30" as="geometry" />
        </mxCell>
        <mxCell id="7qXslM0cFS4lXqfqdxFk-83" value="Jā" style="text;html=1;align=center;verticalAlign=middle;resizable=0;points=[];autosize=1;strokeColor=none;fillColor=none;" vertex="1" parent="1">
          <mxGeometry x="205" y="1620" width="40" height="30" as="geometry" />
        </mxCell>
        <mxCell id="7qXslM0cFS4lXqfqdxFk-84" value="Nē" style="text;html=1;align=center;verticalAlign=middle;resizable=0;points=[];autosize=1;strokeColor=none;fillColor=none;" vertex="1" parent="1">
          <mxGeometry x="265" y="1560" width="40" height="30" as="geometry" />
        </mxCell>
        <mxCell id="7qXslM0cFS4lXqfqdxFk-86" style="edgeStyle=orthogonalEdgeStyle;rounded=0;orthogonalLoop=1;jettySize=auto;html=1;exitX=0.5;exitY=1;exitDx=0;exitDy=0;entryX=0.5;entryY=0;entryDx=0;entryDy=0;" edge="1" parent="1" source="7qXslM0cFS4lXqfqdxFk-85" target="7qXslM0cFS4lXqfqdxFk-74">
          <mxGeometry relative="1" as="geometry" />
        </mxCell>
        <mxCell id="7qXslM0cFS4lXqfqdxFk-85" value="Sākums" style="ellipse;whiteSpace=wrap;html=1;aspect=fixed;" vertex="1" parent="1">
          <mxGeometry x="190" y="1410" width="50" height="50" as="geometry" />
        </mxCell>
        <mxCell id="7qXslM0cFS4lXqfqdxFk-87" value="Beigas" style="ellipse;whiteSpace=wrap;html=1;aspect=fixed;" vertex="1" parent="1">
          <mxGeometry x="335" y="1555" width="50" height="50" as="geometry" />
        </mxCell>
        <mxCell id="7qXslM0cFS4lXqfqdxFk-88" value="While x &amp;lt;= 10 cikls" style="text;html=1;align=center;verticalAlign=middle;resizable=0;points=[];autosize=1;strokeColor=none;fillColor=none;" vertex="1" parent="1">
          <mxGeometry x="155" y="1380" width="120" height="30" as="geometry" />
        </mxCell>
        <mxCell id="7qXslM0cFS4lXqfqdxFk-89" value="Programma, kas ciklā saskaita skaitļus no 1 līdz 10" style="text;html=1;align=center;verticalAlign=middle;resizable=0;points=[];autosize=1;strokeColor=none;fillColor=none;" vertex="1" parent="1">
          <mxGeometry x="474.76" y="1400" width="300" height="30" as="geometry" />
        </mxCell>
        <mxCell id="7qXslM0cFS4lXqfqdxFk-90" value="Blokshēma:" style="text;html=1;align=center;verticalAlign=middle;resizable=0;points=[];autosize=1;strokeColor=none;fillColor=none;" vertex="1" parent="1">
          <mxGeometry x="564.52" y="1380" width="90" height="30" as="geometry" />
        </mxCell>
        <mxCell id="7qXslM0cFS4lXqfqdxFk-93" value="&lt;div align=&quot;left&quot;&gt;x = 0&lt;br&gt;for i in range(0,10):&lt;br&gt;&amp;nbsp;&amp;nbsp;&amp;nbsp; x += i&lt;br&gt;print(x)&lt;/div&gt;" style="text;html=1;align=left;verticalAlign=middle;resizable=0;points=[];autosize=1;strokeColor=none;fillColor=none;" vertex="1" parent="1">
          <mxGeometry x="485" y="1440" width="130" height="70" as="geometry" />
        </mxCell>
        <mxCell id="7qXslM0cFS4lXqfqdxFk-101" value="x = 0&#xa;i = 0&#xa;while i &lt; 10:&#xa;    x += i&#xa;    i += 1&#xa;print(x)" style="text;whiteSpace=wrap;" vertex="1" parent="1">
          <mxGeometry x="680" y="1430" width="100" height="110" as="geometry" />
        </mxCell>
        <mxCell id="7qXslM0cFS4lXqfqdxFk-102" style="edgeStyle=orthogonalEdgeStyle;rounded=0;orthogonalLoop=1;jettySize=auto;html=1;exitX=0.5;exitY=1;exitDx=0;exitDy=0;" edge="1" parent="1" source="7qXslM0cFS4lXqfqdxFk-104">
          <mxGeometry relative="1" as="geometry">
            <mxPoint x="614.8131034482758" y="1770" as="targetPoint" />
          </mxGeometry>
        </mxCell>
        <mxCell id="7qXslM0cFS4lXqfqdxFk-103" style="edgeStyle=orthogonalEdgeStyle;rounded=0;orthogonalLoop=1;jettySize=auto;html=1;exitX=1;exitY=0.5;exitDx=0;exitDy=0;" edge="1" parent="1" source="7qXslM0cFS4lXqfqdxFk-104">
          <mxGeometry relative="1" as="geometry">
            <mxPoint x="735.0199999999998" y="1700.310344827586" as="targetPoint" />
          </mxGeometry>
        </mxCell>
        <mxCell id="7qXslM0cFS4lXqfqdxFk-104" value="i &amp;lt; 10" style="rhombus;whiteSpace=wrap;html=1;" vertex="1" parent="1">
          <mxGeometry x="575.02" y="1660" width="80" height="80" as="geometry" />
        </mxCell>
        <mxCell id="7qXslM0cFS4lXqfqdxFk-105" style="edgeStyle=orthogonalEdgeStyle;rounded=0;orthogonalLoop=1;jettySize=auto;html=1;exitX=0.5;exitY=1;exitDx=0;exitDy=0;entryX=0.5;entryY=0;entryDx=0;entryDy=0;" edge="1" parent="1" source="7qXslM0cFS4lXqfqdxFk-106" target="7qXslM0cFS4lXqfqdxFk-104">
          <mxGeometry relative="1" as="geometry" />
        </mxCell>
        <mxCell id="7qXslM0cFS4lXqfqdxFk-106" value="&lt;div&gt;x = 0&lt;/div&gt;&lt;div&gt;i = 0&lt;br&gt;&lt;/div&gt;" style="rounded=0;whiteSpace=wrap;html=1;" vertex="1" parent="1">
          <mxGeometry x="575.02" y="1610" width="80" height="30" as="geometry" />
        </mxCell>
        <mxCell id="7qXslM0cFS4lXqfqdxFk-107" style="edgeStyle=orthogonalEdgeStyle;rounded=0;orthogonalLoop=1;jettySize=auto;html=1;exitX=0.5;exitY=1;exitDx=0;exitDy=0;entryX=0.5;entryY=0;entryDx=0;entryDy=0;" edge="1" parent="1" source="7qXslM0cFS4lXqfqdxFk-108" target="7qXslM0cFS4lXqfqdxFk-110">
          <mxGeometry relative="1" as="geometry" />
        </mxCell>
        <mxCell id="7qXslM0cFS4lXqfqdxFk-108" value="x += i" style="rounded=0;whiteSpace=wrap;html=1;" vertex="1" parent="1">
          <mxGeometry x="575.02" y="1770" width="80" height="30" as="geometry" />
        </mxCell>
        <mxCell id="7qXslM0cFS4lXqfqdxFk-109" style="edgeStyle=orthogonalEdgeStyle;rounded=0;orthogonalLoop=1;jettySize=auto;html=1;exitX=0;exitY=0.5;exitDx=0;exitDy=0;" edge="1" parent="1" source="7qXslM0cFS4lXqfqdxFk-110">
          <mxGeometry relative="1" as="geometry">
            <mxPoint x="615.0199999999998" y="1649.9999999999998" as="targetPoint" />
            <Array as="points">
              <mxPoint x="555.02" y="1845" />
              <mxPoint x="555.02" y="1650" />
            </Array>
          </mxGeometry>
        </mxCell>
        <mxCell id="7qXslM0cFS4lXqfqdxFk-110" value="i += 1" style="rounded=0;whiteSpace=wrap;html=1;" vertex="1" parent="1">
          <mxGeometry x="575.02" y="1830" width="80" height="30" as="geometry" />
        </mxCell>
        <mxCell id="7qXslM0cFS4lXqfqdxFk-111" value="Jā" style="text;html=1;align=center;verticalAlign=middle;resizable=0;points=[];autosize=1;strokeColor=none;fillColor=none;" vertex="1" parent="1">
          <mxGeometry x="605.02" y="1740" width="40" height="30" as="geometry" />
        </mxCell>
        <mxCell id="7qXslM0cFS4lXqfqdxFk-112" value="Nē" style="text;html=1;align=center;verticalAlign=middle;resizable=0;points=[];autosize=1;strokeColor=none;fillColor=none;" vertex="1" parent="1">
          <mxGeometry x="665.02" y="1680" width="40" height="30" as="geometry" />
        </mxCell>
        <mxCell id="7qXslM0cFS4lXqfqdxFk-113" style="edgeStyle=orthogonalEdgeStyle;rounded=0;orthogonalLoop=1;jettySize=auto;html=1;exitX=0.5;exitY=1;exitDx=0;exitDy=0;entryX=0.5;entryY=0;entryDx=0;entryDy=0;" edge="1" parent="1" source="7qXslM0cFS4lXqfqdxFk-114" target="7qXslM0cFS4lXqfqdxFk-106">
          <mxGeometry relative="1" as="geometry" />
        </mxCell>
        <mxCell id="7qXslM0cFS4lXqfqdxFk-114" value="Sākums" style="ellipse;whiteSpace=wrap;html=1;aspect=fixed;" vertex="1" parent="1">
          <mxGeometry x="590.02" y="1530" width="50" height="50" as="geometry" />
        </mxCell>
        <mxCell id="7qXslM0cFS4lXqfqdxFk-115" value="Beigas" style="ellipse;whiteSpace=wrap;html=1;aspect=fixed;" vertex="1" parent="1">
          <mxGeometry x="735.02" y="1675" width="50" height="50" as="geometry" />
        </mxCell>
      </root>
    </mxGraphModel>
  </diagram>
</mxfile>
